<svg width="1200" height="900" viewBox="0 0 1200 900" fill="none" xmlns="http://www.w3.org/2000/svg">
  <rect width="1200" height="900" rx="40" fill="#E9EEF2"/>
  <rect x="70" y="70" width="1060" height="760" rx="28" fill="#F7F9FB" stroke="#D8E2EA" stroke-width="2"/>
  <rect x="110" y="112" width="340" height="40" rx="20" fill="#DDE7EF"/>
  <rect x="900" y="112" width="190" height="40" rx="20" fill="#183B53"/>
  <rect x="130" y="210" width="410" height="250" rx="28" fill="#EFF4F8" stroke="#D8E2EA" stroke-width="2"/>
  <rect x="160" y="246" width="140" height="24" rx="12" fill="#C6D6E2"/>
  <rect x="160" y="292" width="160" height="116" rx="20" fill="#DDE8EF"/>
  <rect x="338" y="292" width="164" height="50" rx="16" fill="#A6E1D1"/>
  <rect x="338" y="358" width="164" height="50" rx="16" fill="#C6D6E2"/>
  <rect x="580" y="210" width="510" height="250" rx="28" fill="#183B53"/>
  <circle cx="708" cy="338" r="82" fill="#8FDBCA"/>
  <path d="M705 270L782 325L744 413L641 401L625 311L705 270Z" fill="#D9F2EC"/>
  <circle cx="705" cy="338" r="14" fill="#183B53"/>
  <rect x="130" y="500" width="300" height="290" rx="28" fill="#183B53"/>
  <rect x="465" y="500" width="310" height="290" rx="28" fill="#EFF4F8" stroke="#D8E2EA" stroke-width="2"/>
  <rect x="810" y="500" width="280" height="290" rx="28" fill="#F5E7D9"/>
  <rect x="164" y="540" width="188" height="28" rx="14" fill="#32556E"/>
  <rect x="164" y="590" width="232" height="18" rx="9" fill="#7EA0B5"/>
  <rect x="164" y="626" width="206" height="18" rx="9" fill="#7EA0B5"/>
  <rect x="164" y="680" width="118" height="42" rx="21" fill="#8FDBCA"/>
  <rect x="503" y="542" width="152" height="24" rx="12" fill="#C6D6E2"/>
  <rect x="503" y="594" width="234" height="18" rx="9" fill="#D1DCE5"/>
  <rect x="503" y="630" width="220" height="18" rx="9" fill="#D1DCE5"/>
  <rect x="503" y="666" width="184" height="18" rx="9" fill="#D1DCE5"/>
  <rect x="846" y="542" width="160" height="24" rx="12" fill="#D5B89A"/>
  <rect x="846" y="594" width="178" height="18" rx="9" fill="#E5CDB5"/>
  <rect x="846" y="630" width="154" height="18" rx="9" fill="#E5CDB5"/>
  <circle cx="956" cy="700" r="42" fill="#183B53"/>
  <path d="M955 677V701L972 714" stroke="#F7F9FB" stroke-width="10" stroke-linecap="round" stroke-linejoin="round"/>
</svg>
