<svg width="1200" height="900" viewBox="0 0 1200 900" fill="none" xmlns="http://www.w3.org/2000/svg">
  <rect width="1200" height="900" rx="36" fill="#ECE8E1"/>
  <rect x="86" y="88" width="1028" height="724" rx="28" fill="#F8F5F0" stroke="#DBD3C8" stroke-width="2"/>
  <rect x="134" y="136" width="420" height="284" rx="28" fill="#183B53"/>
  <rect x="182" y="186" width="184" height="24" rx="12" fill="#7693A7"/>
  <rect x="182" y="238" width="248" height="18" rx="9" fill="#8AA5B7"/>
  <rect x="182" y="272" width="224" height="18" rx="9" fill="#8AA5B7"/>
  <rect x="626" y="136" width="438" height="284" rx="28" fill="#EFF3F6" stroke="#D8E0E7" stroke-width="2"/>
  <rect x="674" y="184" width="172" height="24" rx="12" fill="#CBD6DF"/>
  <rect x="674" y="238" width="282" height="18" rx="9" fill="#D7E0E7"/>
  <rect x="674" y="272" width="248" height="18" rx="9" fill="#D7E0E7"/>
  <rect x="134" y="490" width="930" height="262" rx="28" fill="#E7EFEA"/>
  <circle cx="294" cy="620" r="92" fill="#8FDBCA"/>
  <rect x="454" y="546" width="542" height="36" rx="18" fill="#C5D3DC"/>
  <rect x="454" y="608" width="478" height="22" rx="11" fill="#D3DEE5"/>
  <rect x="454" y="648" width="398" height="22" rx="11" fill="#D3DEE5"/>
  <path d="M293 562L345 598L320 660L250 650L240 586L293 562Z" fill="#F4FBF8"/>
  <circle cx="293" cy="619" r="14" fill="#183B53"/>
</svg>
