<svg width="1200" height="900" viewBox="0 0 1200 900" fill="none" xmlns="http://www.w3.org/2000/svg">
  <rect width="1200" height="900" rx="36" fill="#ECE8E1"/>
  <rect x="108" y="104" width="984" height="692" rx="30" fill="#F7F3EE" stroke="#D8D0C7" stroke-width="2"/>
  <rect x="172" y="164" width="368" height="470" rx="28" fill="#183B53"/>
  <rect x="642" y="168" width="380" height="212" rx="28" fill="#F4E7D8"/>
  <rect x="686" y="214" width="180" height="24" rx="12" fill="#D5B691"/>
  <rect x="686" y="268" width="256" height="18" rx="9" fill="#E7CFB4"/>
  <rect x="686" y="304" width="224" height="18" rx="9" fill="#E7CFB4"/>
  <rect x="642" y="420" width="380" height="214" rx="28" fill="#E7EFEA"/>
  <rect x="686" y="466" width="172" height="24" rx="12" fill="#BFD8CC"/>
  <rect x="686" y="520" width="260" height="18" rx="9" fill="#D0E0D8"/>
  <rect x="686" y="556" width="224" height="18" rx="9" fill="#D0E0D8"/>
  <path d="M270 282C270 229.533 312.533 187 365 187V187C417.467 187 460 229.533 460 282V282C460 334.467 417.467 377 365 377V377C312.533 377 270 334.467 270 282V282Z" fill="#8FDBCA"/>
  <path d="M317 715C317 664.19 358.19 623 409 623V623C459.81 623 501 664.19 501 715V715H317V715Z" fill="#F7F3EE"/>
  <path d="M229 715C229 634.367 294.367 569 375 569H443C523.633 569 589 634.367 589 715V715H229V715Z" fill="#A8D0C3"/>
</svg>
