<svg width="1200" height="900" viewBox="0 0 1200 900" fill="none" xmlns="http://www.w3.org/2000/svg">
  <rect width="1200" height="900" rx="40" fill="#E8EDF3"/>
  <rect x="90" y="128" width="1020" height="640" rx="36" fill="#F8FAFC" stroke="#D9E1E8" stroke-width="2"/>
  <rect x="138" y="182" width="430" height="532" rx="28" fill="#183B53"/>
  <rect x="178" y="230" width="164" height="24" rx="12" fill="#6F90A5"/>
  <rect x="178" y="286" width="322" height="18" rx="9" fill="#88A5B8"/>
  <rect x="178" y="322" width="292" height="18" rx="9" fill="#88A5B8"/>
  <rect x="178" y="394" width="346" height="124" rx="24" fill="#F3F8FB"/>
  <rect x="178" y="560" width="154" height="44" rx="22" fill="#8FDBCA"/>
  <rect x="618" y="182" width="444" height="248" rx="28" fill="#EEF3F7" stroke="#D9E1E8" stroke-width="2"/>
  <rect x="658" y="228" width="182" height="24" rx="12" fill="#CBD8E2"/>
  <rect x="658" y="278" width="324" height="18" rx="9" fill="#D8E2EA"/>
  <rect x="658" y="314" width="286" height="18" rx="9" fill="#D8E2EA"/>
  <rect x="618" y="466" width="444" height="248" rx="28" fill="#F4E7D8"/>
  <rect x="658" y="514" width="174" height="24" rx="12" fill="#D8B996"/>
  <rect x="658" y="566" width="292" height="18" rx="9" fill="#E7CFB4"/>
  <rect x="658" y="602" width="268" height="18" rx="9" fill="#E7CFB4"/>
  <circle cx="958" cy="606" r="54" fill="#183B53"/>
  <path d="M931 608L952 629L991 588" stroke="#F7F9FB" stroke-width="16" stroke-linecap="round" stroke-linejoin="round"/>
</svg>
