<svg version="1.1" viewBox="0.0 0.0 538.4698162729659 167.98425196850394" fill="none" stroke="none" stroke-linecap="square" stroke-miterlimit="10" xmlns:xlink="http://www.w3.org/1999/xlink" xmlns="http://www.w3.org/2000/svg"><clipPath id="p.0"><path d="m0 0l538.4698 0l0 167.98425l-538.4698 0l0 -167.98425z" clip-rule="nonzero"/></clipPath><g clip-path="url(#p.0)"><path fill="#000000" fill-opacity="0.0" d="m0 0l538.4698 0l0 167.98425l-538.4698 0z" fill-rule="evenodd"/><path fill="#000000" fill-opacity="0.0" d="m157.41283 46.764122l367.685 0l0 74.456696l-367.685 0z" fill-rule="evenodd"/><path fill="#ffffff" d="m172.1472 107.919075q-1.265625 0 -2.125 -0.859375q-0.859375 -0.859375 -0.859375 -2.125l0 -38.890625q0 -1.3125 0.859375 -2.1406288q0.859375 -0.84375 2.125 -0.84375l11.484375 0q4.3125 0 7.640625 1.9062538q3.328125 1.890625 5.1875 5.25q1.875 3.359375 1.875 7.71875q0 4.1875 -1.875 7.46875q-1.859375 3.28125 -5.1875 5.125q-3.328125 1.828125 -7.640625 1.828125l-8.5 0l0 12.578125q0 1.265625 -0.84375 2.125q-0.828125 0.859375 -2.140625 0.859375zm2.984375 -21.078125l8.5 0q2.640625 0 4.640625 -1.140625q2.015625 -1.15625 3.15625 -3.15625q1.15625 -2.015625 1.15625 -4.609375q0 -2.75 -1.15625 -4.84375q-1.140625 -2.109375 -3.15625 -3.3125q-2.0 -1.203125 -4.640625 -1.203125l-8.5 0l0 18.265625zm42.321945 21.3125q-4.640625 0 -8.203125 -2.03125q-3.5625 -2.046875 -5.609375 -5.640625q-2.03125 -3.59375 -2.03125 -8.25q0 -4.703125 2.03125 -8.28125q2.046875 -3.59375 5.609375 -5.625q3.5625 -2.046875 8.203125 -2.046875q4.609375 0 8.15625 2.046875q3.5625 2.03125 5.59375 5.625q2.046875 3.578125 2.046875 8.28125q0 4.65625 -2.015625 8.25q-2.0 3.59375 -5.5625 5.640625q-3.5625 2.03125 -8.21875 2.03125zm0 -5.171875q3.0 0 5.296875 -1.375q2.296875 -1.390625 3.578125 -3.796875q1.296875 -2.40625 1.296875 -5.578125q0 -3.15625 -1.296875 -5.59375q-1.28125 -2.4375 -3.578125 -3.8125q-2.296875 -1.390625 -5.296875 -1.390625q-2.984375 0 -5.28125 1.390625q-2.296875 1.375 -3.625 3.8125q-1.3125 2.4375 -1.3125 5.59375q0 3.171875 1.3125 5.578125q1.328125 2.40625 3.625 3.796875q2.296875 1.375 5.28125 1.375zm32.00464 4.9375q-2.53125 0 -4.484375 -1.375q-1.953125 -1.375 -3.046875 -3.765625q-1.09375 -2.390625 -1.09375 -5.484375l0 -31.359375q0 -1.265625 0.796875 -2.0625038q0.8125 -0.8125 2.078125 -0.8125q1.265625 0 2.0625 0.8125q0.8125 0.7968788 0.8125 2.0625038l0 31.359375q0 2.125 0.796875 3.5q0.8125 1.375 2.078125 1.375l1.4375 0q1.140625 0 1.859375 0.8125q0.71875 0.796875 0.71875 2.0625q0 1.265625 -1.09375 2.078125q-1.09375 0.796875 -2.8125 0.796875l-0.109375 0zm15.387482 13.78125q-0.578125 0 -1.375 -0.34375q-2.53125 -1.140625 -1.375 -3.609375l17.515625 -39.578125q1.140625 -2.421875 3.609375 -1.375q2.59375 1.078125 1.4375 3.609375l-17.578125 39.515625q-0.6875 1.78125 -2.234375 1.78125zm6.78125 -15.046875q-1.09375 0.46875 -2.046875 0.09375q-0.9375 -0.375 -1.515625 -1.46875l-13.15625 -24.984375q-0.578125 -1.09375 -0.140625 -2.09375q0.4375 -1.015625 1.515625 -1.46875q1.09375 -0.453125 2.0625 -0.078125q0.984375 0.359375 1.5 1.453125l12.578125 24.984375q0.578125 1.09375 0.4375 2.109375q-0.140625 1.0 -1.234375 1.453125zm22.11502 1.265625q-1.265625 0 -2.125 -0.859375q-0.859375 -0.859375 -0.859375 -2.125l0 -38.890625q0 -1.3125 0.859375 -2.1406288q0.859375 -0.84375 2.125 -0.84375q1.3125 0 2.140625 0.84375q0.84375 0.8281288 0.84375 2.1406288l0 16.484375l26.65625 0l0 -16.484375q0 -1.3125 0.859375 -2.1406288q0.859375 -0.84375 2.125 -0.84375q1.3125 0 2.109375 0.84375q0.8125 0.8281288 0.8125 2.1406288l0 38.890625q0 1.265625 -0.8125 2.125q-0.796875 0.859375 -2.109375 0.859375q-1.265625 0 -2.125 -0.859375q-0.859375 -0.859375 -0.859375 -2.125l0 -17.125l-26.65625 0l0 17.125q0 1.265625 -0.84375 2.125q-0.828125 0.859375 -2.140625 0.859375zm61.23114 0.234375q-4.78125 0 -8.484375 -2.03125q-3.703125 -2.046875 -5.796875 -5.640625q-2.09375 -3.59375 -2.09375 -8.25q0 -4.703125 1.984375 -8.28125q1.984375 -3.59375 5.484375 -5.625q3.5 -2.046875 8.03125 -2.046875q4.484375 0 7.703125 1.984375q3.21875 1.96875 4.90625 5.453125q1.703125 3.46875 1.703125 8.0q0 1.09375 -0.75 1.8125q-0.75 0.71875 -1.890625 0.71875l-23.15625 0l0 -4.59375l22.984375 0l-2.359375 1.609375q-0.0625 -2.875 -1.15625 -5.140625q-1.078125 -2.265625 -3.09375 -3.578125q-2.015625 -1.328125 -4.890625 -1.328125q-3.265625 0 -5.59375 1.4375q-2.328125 1.421875 -3.53125 3.921875q-1.203125 2.5 -1.203125 5.65625q0 3.171875 1.4375 5.640625q1.4375 2.46875 3.953125 3.90625q2.53125 1.4375 5.8125 1.4375q1.78125 0 3.640625 -0.65625q1.859375 -0.671875 3.015625 -1.53125q0.859375 -0.640625 1.859375 -0.65625q1.015625 -0.03125 1.765625 0.59375q0.96875 0.859375 1.015625 1.90625q0.0625 1.03125 -0.90625 1.765625q-1.953125 1.5625 -4.859375 2.546875q-2.890625 0.96875 -5.53125 0.96875zm32.847687 0q-4.1875 0 -7.53125 -2.09375q-3.328125 -2.109375 -5.25 -5.6875q-1.921875 -3.59375 -1.921875 -8.140625q0 -4.53125 2.09375 -8.140625q2.09375 -3.625 5.6875 -5.71875q3.59375 -2.09375 8.0625 -2.09375q4.484375 0 8.046875 2.09375q3.5625 2.09375 5.65625 5.71875q2.09375 3.609375 2.09375 8.140625l-2.234375 0q0 4.546875 -1.921875 8.140625q-1.921875 3.578125 -5.265625 5.6875q-3.328125 2.09375 -7.515625 2.09375zm1.140625 -5.171875q2.9375 0 5.234375 -1.40625q2.296875 -1.40625 3.609375 -3.84375q1.328125 -2.453125 1.328125 -5.5q0 -3.09375 -1.328125 -5.53125q-1.3125 -2.453125 -3.609375 -3.859375q-2.296875 -1.40625 -5.234375 -1.40625q-2.859375 0 -5.1875 1.40625q-2.328125 1.40625 -3.6875 3.859375q-1.34375 2.4375 -1.34375 5.53125q0 3.046875 1.34375 5.5q1.359375 2.4375 3.6875 3.84375q2.328125 1.40625 5.1875 1.40625zm12.875 5.0q-1.265625 0 -2.109375 -0.828125q-0.828125 -0.84375 -0.828125 -2.109375l0 -8.78125l1.09375 -6.09375l4.765625 2.0625l0 12.8125q0 1.265625 -0.828125 2.109375q-0.828125 0.828125 -2.09375 0.828125zm19.129639 -0.0625q-2.53125 0 -4.484375 -1.375q-1.953125 -1.375 -3.046875 -3.765625q-1.09375 -2.390625 -1.09375 -5.484375l0 -31.359375q0 -1.265625 0.796875 -2.0625038q0.8125 -0.8125 2.078125 -0.8125q1.265625 0 2.0625 0.8125q0.8125 0.7968788 0.8125 2.0625038l0 31.359375q0 2.125 0.796875 3.5q0.8125 1.375 2.078125 1.375l1.4375 0q1.140625 0 1.859375 0.8125q0.71875 0.796875 0.71875 2.0625q0 1.265625 -1.09375 2.078125q-1.09375 0.796875 -2.8125 0.796875l-0.109375 0zm21.184387 0q-2.859375 0 -5.171875 -1.453125q-2.296875 -1.46875 -3.625 -4.0q-1.3125 -2.53125 -1.3125 -5.6875l0 -27.40625q0 -1.25 0.796875 -2.046875q0.8125 -0.8125 2.078125 -0.8125q1.265625 0 2.0625 0.8125q0.8125 0.796875 0.8125 2.046875l0 27.40625q0 2.296875 1.265625 3.84375q1.265625 1.546875 3.09375 1.546875l1.953125 0q1.046875 0 1.75 0.8125q0.71875 0.796875 0.71875 2.0625q0 1.265625 -0.953125 2.078125q-0.9375 0.796875 -2.421875 0.796875l-1.046875 0zm-12.75 -25.328125q-1.203125 0 -1.953125 -0.6875q-0.734375 -0.6875 -0.734375 -1.734375q0 -1.140625 0.734375 -1.828125q0.75 -0.6875 1.953125 -0.6875l13.265625 0q1.21875 0 1.953125 0.6875q0.75 0.6875 0.75 1.828125q0 1.046875 -0.75 1.734375q-0.734375 0.6875 -1.953125 0.6875l-13.265625 0zm27.28241 13.890625q-1.265625 0 -2.09375 -0.828125q-0.828125 -0.828125 -0.828125 -2.09375l0 -27.5625q0 -1.328125 0.828125 -2.1250038q0.828125 -0.8125 2.09375 -0.8125q1.328125 0 2.125 0.8125q0.8125 0.7968788 0.8125 2.1250038l0 27.5625q0 1.265625 -0.8125 2.09375q-0.796875 0.828125 -2.125 0.828125zm23.609375 11.5q-1.265625 0 -2.09375 -0.828125q-0.828125 -0.84375 -0.828125 -2.109375l0 -14.125q0 -3.28125 -1.21875 -5.34375q-1.203125 -2.0625 -3.25 -3.0625q-2.03125 -1.015625 -4.671875 -1.015625q-2.40625 0 -4.359375 0.984375q-1.953125 0.96875 -3.109375 2.609375q-1.140625 1.640625 -1.140625 3.765625l-3.625 0q0 -3.625 1.75 -6.46875q1.75 -2.84375 4.796875 -4.5q3.046875 -1.671875 6.84375 -1.671875q3.953125 0 7.078125 1.703125q3.140625 1.6875 4.953125 4.96875q1.8125 3.265625 1.8125 8.03125l0 14.125q0 1.265625 -0.84375 2.109375q-0.828125 0.828125 -2.09375 0.828125zm-23.609375 0q-1.265625 0 -2.09375 -0.828125q-0.828125 -0.84375 -0.828125 -2.109375l0 -25.609375q0 -1.328125 0.828125 -2.125q0.828125 -0.8125 2.09375 -0.8125q1.328125 0 2.125 0.8125q0.8125 0.796875 0.8125 2.125l0 25.609375q0 1.265625 -0.8125 2.109375q-0.796875 0.828125 -2.125 0.828125z" fill-rule="nonzero"/><path fill="#3c78d8" d="m64.14164 54.506016l96.90626 -25.07573l-17.635681 98.53148z" fill-rule="evenodd"/><path stroke="#3c78d8" stroke-width="4.3858267716535435" stroke-linejoin="round" stroke-linecap="butt" d="m64.14164 54.506016l96.90626 -25.07573l-17.635681 98.53148z" fill-rule="evenodd"/><path fill="#6d9eeb" d="m46.736046 80.4116l85.580284 -51.883537l11.4609375 99.43689z" fill-rule="evenodd"/><path stroke="#6d9eeb" stroke-width="4.3858267716535435" stroke-linejoin="round" stroke-linecap="butt" d="m46.736046 80.4116l85.580284 -51.883537l11.4609375 99.43689z" fill-rule="evenodd"/><path fill="#a4c2f4" d="m37.824787 102.8875l71.881134 -69.659805l33.325584 94.3925z" fill-rule="evenodd"/><path stroke="#a4c2f4" stroke-width="4.3858267716535435" stroke-linejoin="round" stroke-linecap="butt" d="m37.824787 102.8875l71.881134 -69.659805l33.325584 94.3925z" fill-rule="evenodd"/><path fill="#c9daf8" d="m35.40116 127.95057l54.037384 -84.24748l54.037376 84.25873z" fill-rule="evenodd"/><path stroke="#c9daf8" stroke-width="4.3858267716535435" stroke-linejoin="round" stroke-linecap="butt" d="m35.40116 127.95057l54.037384 -84.24748l54.037376 84.25873z" fill-rule="evenodd"/></g></svg>